<?xml version="1.0" standalone="no"?>
<!DOCTYPE svg PUBLIC "-//W3C//DTD SVG 20010904//EN"
 "http://www.w3.org/TR/2001/REC-SVG-20010904/DTD/svg10.dtd">
<svg version="1.0" xmlns="http://www.w3.org/2000/svg"
 width="294.000000pt" height="176.000000pt" viewBox="0 0 294.000000 176.000000"
 preserveAspectRatio="xMidYMid meet">

<g transform="translate(0.000000,176.000000) scale(0.100000,-0.100000)"
fill="#000000" stroke="none">
<path d="M2267 1464 c-49 -53 -87 -98 -85 -100 2 -2 21 1 42 7 21 6 40 8 43 6
12 -12 -138 -340 -232 -508 l-56 -99 -157 0 -157 0 -33 74 c-19 41 -51 94 -73
117 -37 40 -40 41 -88 37 -115 -11 -201 -139 -137 -203 34 -34 95 -47 213 -44
82 2 106 0 114 -12 5 -8 29 -78 54 -157 l46 -143 -20 -27 c-29 -42 -133 -137
-168 -156 -54 -28 -103 -21 -152 20 -48 42 -76 94 -156 289 -74 181 -169 373
-202 407 -48 50 -103 35 -201 -56 -63 -57 -136 -110 -179 -128 -18 -8 -122
-14 -298 -18 l-270 -7 275 1 275 1 52 27 c28 15 85 57 125 94 92 82 147 112
185 98 45 -15 121 -162 254 -488 83 -205 136 -266 229 -266 60 0 115 35 196
123 l62 67 22 -55 c102 -252 227 -164 361 253 l42 132 146 0 c188 1 575 11
580 16 2 2 -159 4 -358 4 l-363 0 6 23 c3 12 36 147 73 299 l67 278 33 -32
c18 -18 33 -29 33 -25 0 11 -30 199 -35 225 -3 12 -9 22 -13 22 -4 0 -47 -43
-95 -96z m112 -17 c15 -104 14 -107 -14 -73 l-23 29 -11 -40 c-11 -40 -32
-127 -107 -435 l-38 -158 -94 0 c-51 0 -92 4 -90 8 2 4 49 98 105 207 91 180
158 327 178 394 7 22 5 23 -18 17 -14 -3 -33 -9 -44 -13 -10 -4 15 30 56 76
41 45 77 78 81 74 4 -4 13 -43 19 -86z m-830 -495 c38 -40 107 -169 97 -180
-13 -12 -250 -7 -274 6 -33 19 -55 58 -48 86 8 32 52 84 91 107 50 31 92 25
134 -19z m410 -208 c5 -5 -44 -87 -116 -193 -35 -52 -62 -96 -59 -98 5 -5 124
170 170 250 l28 47 98 0 99 0 -15 -52 c-85 -292 -175 -458 -248 -458 -52 0
-91 56 -142 203 -55 162 -101 306 -98 309 4 5 278 -3 283 -8z"/>
</g>
</svg>
