<?xml version="1.0" standalone="no"?>
<!DOCTYPE svg PUBLIC "-//W3C//DTD SVG 20010904//EN"
 "http://www.w3.org/TR/2001/REC-SVG-20010904/DTD/svg10.dtd">
<svg version="1.0" xmlns="http://www.w3.org/2000/svg"
 width="302.000000pt" height="203.000000pt" viewBox="0 0 302.000000 203.000000"
 preserveAspectRatio="xMidYMid meet">

<g transform="translate(0.000000,203.000000) scale(0.100000,-0.100000)"
fill="#000000" stroke="none">
<path d="M1223 1848 c-11 -13 -32 -42 -47 -65 -20 -32 -33 -43 -58 -47 -97
-15 -115 -19 -139 -32 -15 -7 -66 -64 -113 -126 -48 -62 -98 -128 -112 -145
-33 -41 -26 -63 19 -63 82 0 233 126 332 276 l54 81 88 10 c48 6 92 6 97 2 16
-14 -11 -82 -65 -165 -62 -94 -75 -129 -89 -236 -23 -175 -79 -287 -165 -332
-83 -43 -225 -28 -295 30 -16 14 -57 63 -91 109 -40 53 -70 85 -82 85 -10 0
-50 -30 -90 -68 -96 -90 -159 -134 -259 -183 -45 -22 -72 -37 -58 -34 86 21
256 133 350 229 24 25 50 46 57 46 6 0 44 -42 84 -94 91 -119 137 -147 251
-154 69 -4 84 -2 132 22 88 43 148 144 167 284 21 146 30 180 66 238 69 112
103 179 103 205 0 32 18 39 113 39 75 0 533 -101 575 -126 12 -8 22 -23 22
-33 0 -27 -53 -69 -96 -77 -35 -6 -177 1 -220 12 -15 4 -29 -3 -46 -21 -22
-23 -27 -25 -54 -14 -16 6 -56 11 -90 11 -146 1 -270 -112 -281 -256 -7 -77 5
-115 62 -201 24 -38 46 -85 50 -108 9 -58 28 -83 71 -97 45 -15 148 -6 180 15
14 9 26 29 30 52 3 21 24 69 47 107 68 114 63 187 -19 278 -18 21 -36 49 -40
64 -9 36 7 98 26 102 26 5 97 -65 125 -123 24 -48 27 -64 23 -129 -3 -69 -6
-78 -50 -142 -46 -68 -78 -138 -78 -175 0 -10 -10 -30 -23 -45 -22 -26 -28
-27 -104 -25 -86 2 -158 -18 -151 -41 8 -22 109 -21 174 1 62 21 88 15 69 -15
-8 -13 -31 -16 -107 -17 -79 -2 -100 -5 -117 -21 -11 -10 -18 -23 -15 -27 9
-16 117 -9 172 10 46 16 54 16 59 4 10 -27 -16 -38 -81 -35 -68 4 -141 -18
-134 -40 8 -23 114 -22 160 1 32 15 40 16 45 6 8 -22 -6 -36 -56 -58 -102 -45
-274 -19 -466 71 -115 53 -191 65 -243 38 -44 -23 -53 -63 -20 -91 13 -11 126
-78 250 -148 181 -102 239 -130 294 -142 38 -8 72 -15 77 -15 4 0 7 -16 7 -36
0 -46 14 -70 51 -89 34 -18 35 -17 105 41 l50 43 100 -5 99 -6 130 97 c72 53
141 104 154 114 33 23 22 48 -24 57 -78 14 -237 -53 -359 -153 -32 -26 -69
-57 -81 -67 -23 -18 -27 -18 -110 -3 -48 9 -90 19 -93 22 -13 13 35 79 97 132
97 83 107 97 171 228 84 175 156 247 262 261 94 13 219 -49 265 -131 12 -21
36 -79 53 -128 18 -49 38 -91 46 -94 7 -3 62 18 121 45 155 72 227 94 378 116
17 3 -1 3 -40 1 -86 -4 -204 -41 -343 -106 -57 -27 -108 -47 -112 -44 -5 3
-28 55 -52 116 -49 127 -82 168 -167 208 -71 33 -166 36 -225 7 -84 -42 -134
-110 -225 -306 -24 -53 -47 -81 -121 -149 -50 -45 -100 -101 -111 -123 -14
-28 -25 -38 -37 -34 -9 2 -37 8 -62 11 -53 8 -92 28 -350 173 -209 119 -229
137 -191 175 18 18 33 22 89 22 59 0 79 -6 177 -51 135 -63 226 -87 330 -87
118 0 222 49 195 93 -5 8 -3 22 5 34 9 13 11 27 5 35 -5 9 -4 22 3 33 9 14 9
23 0 37 -10 16 -8 22 7 36 10 9 22 31 26 49 14 66 37 123 69 166 57 79 69 110
68 181 0 85 -45 175 -110 221 -48 35 -50 39 -25 60 13 12 28 14 72 8 103 -16
188 -12 230 10 56 28 79 82 47 108 -7 6 -128 39 -268 73 -250 61 -354 75 -417
55 -17 -6 -22 -1 -32 28 -13 41 -53 76 -85 76 -12 0 -31 -10 -42 -22z m79 -2
c10 -7 25 -29 33 -49 l15 -36 -45 -5 c-25 -3 -65 -9 -90 -12 -25 -3 -45 -2
-45 1 0 3 16 30 35 60 37 58 62 68 97 41z m-189 -168 c-85 -134 -185 -235
-268 -274 -49 -23 -105 -32 -105 -16 0 8 134 185 200 263 42 50 79 66 158 68
l42 1 -27 -42z m535 -185 c19 -4 22 -10 17 -27 -4 -11 -10 -41 -12 -66 -5 -47
-1 -53 78 -151 12 -15 23 -47 26 -72 5 -45 -4 -72 -67 -187 -10 -19 -24 -54
-30 -77 -13 -50 -29 -57 -132 -58 -81 0 -112 22 -122 88 -4 23 -17 58 -29 79
-12 20 -35 58 -52 84 -103 167 35 394 239 394 34 0 71 -3 84 -7z m-22 -682
c-8 -12 -88 -31 -135 -31 -51 0 -62 16 -19 29 42 12 161 14 154 2z m-3 -72
c-24 -24 -173 -40 -173 -19 0 14 58 28 125 29 42 1 56 -2 48 -10z m-3 -68 c0
-15 -59 -31 -111 -31 -95 0 -34 37 64 39 26 1 47 -3 47 -8z m574 -171 c4 -5
-16 -25 -45 -47 -30 -21 -92 -66 -138 -101 -46 -34 -92 -67 -104 -73 -21 -12
-162 -8 -174 5 -4 4 10 23 32 42 95 82 234 165 311 183 41 10 103 5 118 -9z
m-566 -211 l63 -12 -42 -43 c-30 -31 -51 -44 -70 -44 -36 0 -69 42 -69 87 0
32 2 34 28 29 15 -3 55 -11 90 -17z"/>
</g>
</svg>
