<?xml version="1.0" standalone="no"?>
<!DOCTYPE svg PUBLIC "-//W3C//DTD SVG 20010904//EN"
 "http://www.w3.org/TR/2001/REC-SVG-20010904/DTD/svg10.dtd">
<svg version="1.0" xmlns="http://www.w3.org/2000/svg"
 width="281.000000pt" height="220.000000pt" viewBox="0 0 281.000000 220.000000"
 preserveAspectRatio="xMidYMid meet">

<g transform="translate(0.000000,220.000000) scale(0.100000,-0.100000)"
fill="#000000" stroke="none">
<path d="M1490 1882 c-74 -37 -204 -100 -288 -141 -83 -41 -150 -76 -149 -78
2 -2 130 58 283 133 153 75 290 140 304 144 20 7 21 8 5 8 -11 1 -81 -29 -155
-66z"/>
<path d="M1670 1935 c0 -7 61 -37 66 -33 2 3 -12 12 -31 21 -19 9 -35 15 -35
12z"/>
<path d="M1777 1879 c7 -7 15 -10 18 -7 3 3 -2 9 -12 12 -14 6 -15 5 -6 -5z"/>
<path d="M1954 1792 c2 -4 -121 -71 -274 -147 -154 -77 -278 -141 -276 -143 2
-2 133 62 291 141 198 99 283 146 271 150 -9 4 -15 3 -12 -1z"/>
<path d="M1990 1665 c-58 -30 -102 -54 -98 -54 4 -1 54 22 111 51 l104 51 96
-52 c54 -29 97 -50 97 -47 0 6 -185 106 -196 105 -5 0 -56 -24 -114 -54z"/>
<path d="M893 1592 l-133 -67 2 -195 2 -195 6 194 5 193 135 69 c74 37 131 68
125 68 -5 0 -70 -30 -142 -67z"/>
<path d="M1720 1535 c-80 -41 -140 -74 -135 -74 6 0 75 33 155 74 80 41 141
74 135 74 -5 0 -75 -33 -155 -74z"/>
<path d="M2310 1607 c0 -3 36 -25 80 -49 44 -24 80 -45 80 -48 0 -3 -32 -18
-70 -34 -39 -16 -69 -30 -67 -32 2 -2 38 10 81 28 60 25 74 35 64 44 -17 16
-168 97 -168 91z"/>
<path d="M792 1515 c6 -7 231 -112 258 -122 13 -4 13 -4 0 7 -12 9 -9 11 15 6
l30 -5 -30 14 c-16 8 -38 11 -49 8 -11 -3 -16 -1 -12 5 3 6 -6 15 -22 20 -15
5 -65 24 -112 42 -46 17 -82 28 -78 25z"/>
<path d="M1360 1485 c-14 -8 -20 -14 -14 -15 5 0 19 7 30 15 24 18 16 19 -16
0z"/>
<path d="M2480 1479 c-13 -9 -12 -10 2 -5 16 5 18 -7 21 -127 l3 -132 2 138
c1 75 -1 137 -5 137 -5 0 -15 -5 -23 -11z"/>
<path d="M1236 1429 c-61 -32 -86 -40 -110 -35 -22 4 -27 3 -16 -4 8 -5 24
-10 35 -9 20 0 199 88 180 88 -5 0 -46 -18 -89 -40z"/>
<path d="M2405 1451 c-22 -11 -35 -19 -30 -19 14 -1 93 36 80 37 -5 0 -28 -8
-50 -18z"/>
<path d="M1418 1389 l-138 -69 2 -123 2 -122 3 120 4 121 142 71 c78 40 138
72 132 72 -5 0 -72 -31 -147 -70z"/>
<path d="M2280 1425 c-14 -8 -20 -14 -15 -14 6 0 21 6 35 14 14 8 21 14 15 14
-5 0 -21 -6 -35 -14z"/>
<path d="M2330 1420 c-8 -5 -10 -10 -5 -10 6 0 17 5 25 10 8 5 11 10 5 10 -5
0 -17 -5 -25 -10z"/>
<path d="M2185 1385 c-27 -13 -45 -23 -40 -24 6 0 33 11 60 24 28 13 46 23 40
24 -5 0 -32 -11 -60 -24z"/>
<path d="M2280 1400 c-8 -5 -10 -10 -5 -10 6 0 17 5 25 10 8 5 11 10 5 10 -5
0 -17 -5 -25 -10z"/>
<path d="M1107 1368 c36 -18 43 -27 46 -57 l4 -36 1 37 c2 34 -1 39 -38 58
-21 11 -43 20 -47 19 -4 0 11 -10 34 -21z"/>
<path d="M2233 1383 c-7 -2 -12 -17 -12 -31 1 -21 2 -22 6 -7 3 11 12 26 21
33 16 12 8 15 -15 5z"/>
<path d="M2090 1345 c-14 -8 -20 -14 -15 -14 6 0 21 6 35 14 14 8 21 14 15 14
-5 0 -21 -6 -35 -14z"/>
<path d="M1995 1305 c-27 -13 -45 -23 -40 -24 6 0 33 11 60 24 28 13 46 23 40
24 -5 0 -32 -11 -60 -24z"/>
<path d="M2231 1306 c0 -11 24 -46 57 -80 32 -34 61 -68 64 -76 3 -8 9 -11 14
-7 4 4 -22 38 -58 75 -37 37 -68 76 -71 87 -4 19 -5 19 -6 1z"/>
<path d="M1390 1244 c129 -76 134 -78 126 -65 -10 16 -1 14 55 -15 45 -22 55
-24 80 -13 17 6 28 14 26 16 -3 2 -16 -1 -29 -8 -21 -9 -34 -6 -86 20 -37 18
-68 28 -78 24 -10 -4 -15 -2 -11 3 5 9 -151 94 -171 94 -4 0 36 -25 88 -56z"/>
<path d="M1900 1265 c-14 -8 -20 -14 -15 -14 6 0 21 6 35 14 14 8 21 14 15 14
-5 0 -21 -6 -35 -14z"/>
<path d="M2163 1161 c-57 -108 -59 -111 -111 -132 -29 -12 -51 -23 -49 -26 3
-2 29 7 60 21 30 13 57 22 60 20 2 -3 16 0 31 5 l26 11 0 -140 c0 -157 -2
-153 74 -120 l46 21 0 149 c0 142 1 149 21 155 11 4 18 9 16 12 -3 2 -15 0
-26 -7 -20 -10 -21 -19 -21 -158 l0 -147 -43 -18 c-23 -9 -46 -17 -50 -17 -4
0 -7 63 -7 140 0 77 -2 140 -4 140 -3 0 -16 -4 -30 -10 -14 -5 -26 -7 -26 -5
0 3 23 51 51 106 27 56 48 103 45 106 -2 3 -31 -45 -63 -106z"/>
<path d="M1830 1235 c-14 -8 -20 -14 -15 -14 6 0 21 6 35 14 14 8 21 14 15 14
-5 0 -21 -6 -35 -14z"/>
<path d="M1144 1075 c0 -93 2 -133 3 -88 2 45 2 122 0 170 -1 48 -3 12 -3 -82z"/>
<path d="M1735 1195 c-27 -13 -45 -23 -40 -24 6 0 33 11 60 24 28 13 46 23 40
24 -5 0 -32 -11 -60 -24z"/>
<path d="M1530 1166 c0 -3 14 -12 30 -21 17 -9 30 -13 30 -11 0 3 -13 12 -30
21 -16 9 -30 13 -30 11z"/>
<path d="M2514 1007 l1 -167 -53 -20 c-29 -11 -57 -20 -61 -20 -5 0 -11 -14
-13 -30 -3 -16 -1 -30 4 -30 4 0 8 11 8 24 0 20 8 27 51 41 28 9 52 15 55 12
3 -2 7 -50 11 -106 l6 -101 146 2 146 2 -142 3 -143 4 -1 92 c-1 50 -5 175 -9
277 l-7 185 1 -168z"/>
<path d="M1608 1117 c7 -9 13 -82 15 -203 l2 -189 3 196 c2 175 0 198 -14 203
-13 5 -14 4 -6 -7z"/>
<path d="M1856 1050 c-21 -38 -35 -70 -32 -70 3 0 19 27 36 61 17 33 35 59 40
57 5 -2 27 -27 50 -57 22 -30 40 -51 40 -47 0 8 -89 126 -94 126 -2 0 -20 -31
-40 -70z"/>
<path d="M1958 968 l-28 -10 0 -144 0 -145 -35 -15 c-19 -7 -37 -14 -39 -14
-3 0 -7 55 -9 123 l-3 122 -2 -132 -2 -132 49 20 49 21 4 128 c3 93 8 133 18
146 14 16 13 17 -3 11 -11 -4 -16 -3 -12 4 4 5 15 7 25 4 10 -3 21 -1 24 4 10
15 -7 19 -36 9z"/>
<path d="M1795 940 c-22 -42 -19 -51 9 -40 13 5 27 6 30 3 3 -4 6 -1 6 6 0 7
-9 9 -26 5 l-26 -7 16 32 c9 17 14 31 12 31 -3 0 -12 -13 -21 -30z"/>
<path d="M772 789 l-2 -166 25 -11 c36 -16 46 -14 15 3 -25 13 -25 15 -30 177
l-6 163 -2 -166z"/>
<path d="M1272 877 l-2 -47 -50 25 c-27 14 -50 23 -50 20 0 -7 101 -57 107
-52 2 3 2 27 0 53 l-3 49 -2 -48z"/>
<path d="M1140 890 c0 -5 5 -10 11 -10 5 0 7 5 4 10 -3 6 -8 10 -11 10 -2 0
-4 -4 -4 -10z"/>
<path d="M1952 689 c-2 -78 -4 -87 -24 -97 -13 -6 -18 -11 -12 -11 5 -1 18 5
28 12 14 10 16 26 13 97 l-3 85 -2 -86z"/>
<path d="M2305 715 c-27 -13 -45 -23 -40 -24 6 0 33 11 60 24 28 13 46 23 40
24 -5 0 -32 -11 -60 -24z"/>
<path d="M2502 673 c-2 -57 -5 -64 -29 -78 -27 -15 -27 -16 -3 -9 38 10 41 16
37 85 l-3 64 -2 -62z"/>
<path d="M2127 643 c-59 -25 -106 -48 -104 -50 4 -3 217 83 225 92 12 12 -19
1 -121 -42z"/>
<path d="M1632 448 c-1 -124 2 -198 8 -198 15 0 91 32 87 36 -2 3 -20 -3 -40
-11 -20 -8 -39 -15 -41 -15 -3 0 -7 87 -9 193 l-2 192 -3 -197z"/>
<path d="M880 575 c25 -13 50 -24 55 -24 6 0 -10 11 -35 24 -25 13 -49 24 -55
24 -5 0 10 -11 35 -24z"/>
<path d="M1880 539 c-63 -27 -120 -49 -127 -49 -7 0 -13 -4 -13 -10 0 -6 9 -6
23 -1 63 25 241 102 245 106 12 12 -21 0 -128 -46z"/>
<path d="M1812 548 c-40 -17 -71 -32 -69 -34 4 -4 147 52 156 61 10 11 -17 2
-87 -27z"/>
<path d="M2352 548 c-40 -17 -71 -32 -69 -34 4 -4 147 52 156 61 10 11 -17 2
-87 -27z"/>
<path d="M980 530 c19 -11 40 -19 45 -19 6 0 -6 8 -25 19 -19 11 -39 19 -45
19 -5 0 6 -8 25 -19z"/>
<path d="M1080 485 c25 -13 50 -24 55 -24 6 0 -10 11 -35 24 -25 13 -49 24
-55 24 -5 0 10 -11 35 -24z"/>
<path d="M2132 458 c-68 -28 -121 -52 -119 -54 4 -4 246 92 255 101 12 11 -19
1 -136 -47z"/>
<path d="M1190 435 c25 -13 50 -24 55 -24 6 0 -10 11 -35 24 -25 13 -49 24
-55 24 -5 0 10 -11 35 -24z"/>
<path d="M1300 385 c25 -13 50 -24 55 -24 6 0 -10 11 -35 24 -25 13 -49 24
-55 24 -5 0 10 -11 35 -24z"/>
<path d="M1862 348 c-68 -28 -121 -52 -119 -54 4 -4 246 92 255 101 12 11 -19
1 -136 -47z"/>
<path d="M1465 310 l100 -48 -480 -4 -480 -3 504 -3 c277 -1 502 0 500 2 -8 7
-232 106 -238 105 -3 0 39 -22 94 -49z"/>
</g>
</svg>
