<?xml version="1.0" standalone="no"?>
<!DOCTYPE svg PUBLIC "-//W3C//DTD SVG 20010904//EN"
 "http://www.w3.org/TR/2001/REC-SVG-20010904/DTD/svg10.dtd">
<svg version="1.0" xmlns="http://www.w3.org/2000/svg"
 width="299.000000pt" height="199.000000pt" viewBox="0 0 299.000000 199.000000"
 preserveAspectRatio="xMidYMid meet">

<g transform="translate(0.000000,199.000000) scale(0.100000,-0.100000)"
fill="#000000" stroke="none">
<path d="M1873 1590 c-91 -19 -173 -81 -215 -163 -26 -50 -36 -172 -19 -233 6
-23 22 -58 36 -78 l25 -37 -25 -22 c-13 -12 -94 -130 -180 -262 -166 -256
-159 -239 -139 -333 l7 -32 -504 2 c-491 3 -506 2 -580 -19 -91 -26 -154 -51
-146 -59 3 -3 36 5 74 19 148 53 297 61 883 44 l275 -7 9 -32 10 -31 190 6
c600 20 1055 153 1319 387 26 23 47 46 47 52 0 5 -24 -12 -52 -38 -199 -179
-529 -302 -961 -359 -131 -17 -501 -39 -521 -32 -7 3 -15 16 -18 30 -4 23 -1
24 66 35 58 9 75 16 94 39 23 28 25 60 7 105 -5 13 1 18 32 23 64 11 66 13 59
45 -4 25 -2 30 13 30 32 0 45 25 32 61 -17 50 -14 59 20 59 50 0 71 17 64 51
-5 24 -3 29 12 29 11 0 25 6 31 12 7 7 20 13 30 13 9 0 26 14 37 31 18 28 27
32 82 37 87 9 154 40 208 98 58 62 86 125 93 204 7 93 -18 168 -78 227 -27 28
-56 48 -69 48 -11 0 -21 6 -21 13 0 8 -11 19 -25 25 -35 16 -151 23 -202 12z
m187 -23 c14 -7 26 -20 28 -30 3 -14 -4 -17 -33 -17 -67 0 -104 -33 -105 -93
0 -52 35 -87 88 -87 75 0 115 60 86 129 -18 44 -18 51 5 51 24 0 88 -71 108
-119 22 -51 21 -155 -1 -221 -14 -39 -35 -70 -75 -111 -64 -63 -124 -89 -207
-89 -49 0 -54 -2 -75 -36 -14 -24 -27 -34 -39 -31 -9 2 -22 -4 -29 -14 -6 -11
-23 -19 -37 -19 -23 0 -24 -3 -19 -34 l7 -33 -52 -7 c-48 -6 -52 -9 -46 -29 4
-12 9 -37 13 -54 5 -30 3 -33 -19 -33 -33 0 -38 -7 -28 -35 12 -31 -5 -45 -57
-45 -48 0 -49 -1 -29 -57 13 -36 12 -43 -6 -71 -16 -25 -28 -32 -66 -37 -26
-3 -57 -8 -69 -11 -19 -4 -24 2 -33 38 -6 24 -13 50 -15 58 -5 17 314 511 333
518 7 2 12 -1 12 -6 0 -6 -70 -117 -155 -248 -85 -130 -155 -242 -155 -249 0
-16 22 -35 41 -35 11 0 74 87 183 255 91 141 166 258 166 261 0 3 -22 26 -49
50 -159 143 -99 413 106 489 48 17 190 19 223 2z m45 -87 c22 -42 19 -77 -10
-105 -39 -40 -96 -32 -120 16 -21 40 -19 57 14 90 42 41 94 41 116 -1z m-345
-453 c0 -11 -311 -490 -324 -499 -13 -9 -26 0 -26 17 0 8 68 119 152 247 89
136 152 242 151 255 -1 22 0 22 23 5 13 -9 24 -21 24 -25z"/>
</g>
</svg>
